HIERARCHY
ROOT Hips
{
  OFFSET 5.80788e-005 67.184 3.4734
  CHANNELS 6 Xposition Yposition Zposition Zrotation Xrotation Yrotation
  JOINT Chest
  {
    OFFSET 0 8.7983 -4.7612
    CHANNELS 3 Zrotation Xrotation Yrotation
    JOINT Chest2
    {
      OFFSET 0 8.0291 0.4195
      CHANNELS 3 Zrotation Xrotation Yrotation
      JOINT Chest3
      {
        OFFSET 0 9.9351 -2.2114
        CHANNELS 3 Zrotation Xrotation Yrotation
        JOINT Neck
        {
          OFFSET 0 22.3885 -0.4656
          CHANNELS 3 Zrotation Xrotation Yrotation
          JOINT Head
          {
            OFFSET -0.0001 12.643 3.4389
            CHANNELS 3 Zrotation Xrotation Yrotation
            End Site
            {
              OFFSET 0.0001 17.6655 0.5274
            }
          }
        }
        JOINT LeftCollar
        {
          OFFSET 2.2603 21.606 7.4023
          CHANNELS 3 Zrotation Xrotation Yrotation
          JOINT LeftShoulder
          {
            OFFSET 13.5163 -1.1332 -5.0146
            CHANNELS 3 Zrotation Xrotation Yrotation
            JOINT LeftElbow
            {
              OFFSET -0.0995 -28.05 -0.2431
              CHANNELS 3 Zrotation Xrotation Yrotation
              JOINT LeftWrist
              {
                OFFSET 0.0679 -23.3996 -0.1402
                CHANNELS 3 Zrotation Xrotation Yrotation
                JOINT LeftFinger1
                {
                  OFFSET 0.7932 -9.069 2.5189
                  CHANNELS 3 Zrotation Xrotation Yrotation
                  JOINT LeftFinger11
                  {
                    OFFSET -0.8272 -3.3923 0.5977
                    CHANNELS 3 Zrotation Xrotation Yrotation
                    JOINT LeftFinger12
                    {
                      OFFSET -0.5649 -2.3158 0.4082
                      CHANNELS 3 Zrotation Xrotation Yrotation
                      End Site
                      {
                        OFFSET -0.4919 -1.6479 0.2673
                      }
                    }
                  }
                }
                JOINT LeftFinger2
                {
                  OFFSET 0.9159 -9.2044 0.2193
                  CHANNELS 3 Zrotation Xrotation Yrotation
                  JOINT LeftFinger21
                  {
                    OFFSET 0.0117 -4.1944 -0.0248
                    CHANNELS 3 Zrotation Xrotation Yrotation
                    JOINT LeftFinger22
                    {
                      OFFSET 0.0071 -2.3249 -0.0142
                      CHANNELS 3 Zrotation Xrotation Yrotation
                      End Site
                      {
                        OFFSET -0.1475 -2.0882 0.0028
                      }
                    }
                  }
                }
                JOINT LeftFinger3
                {
                  OFFSET 0.6113 -8.7231 -2.0637
                  CHANNELS 3 Zrotation Xrotation Yrotation
                  JOINT LeftFinger31
                  {
                    OFFSET -0.1927 -3.8059 -0.2383
                    CHANNELS 3 Zrotation Xrotation Yrotation
                    JOINT LeftFinger32
                    {
                      OFFSET -0.1091 -2.1688 -0.1362
                      CHANNELS 3 Zrotation Xrotation Yrotation
                      End Site
                      {
                        OFFSET -0.2358 -1.9176 -0.0906
                      }
                    }
                  }
                }
                JOINT LeftFinger4
                {
                  OFFSET -0.6151 -8.0947 -3.5641
                  CHANNELS 3 Zrotation Xrotation Yrotation
                  JOINT LeftFinger41
                  {
                    OFFSET -0.4882 -2.341 -0.6462
                    CHANNELS 3 Zrotation Xrotation Yrotation
                    JOINT LeftFinger42
                    {
                      OFFSET -0.3575 -1.7167 -0.4742
                      CHANNELS 3 Zrotation Xrotation Yrotation
                      End Site
                      {
                        OFFSET -0.4187 -1.5237 -0.3496
                      }
                    }
                  }
                }
                JOINT LeftFinger0
                {
                  OFFSET -1.42 -1.8761 1.4223
                  CHANNELS 3 Zrotation Xrotation Yrotation
                  JOINT LeftFinger01
                  {
                    OFFSET -1.1471 -3.4929 2.6334
                    CHANNELS 3 Zrotation Xrotation Yrotation
                    JOINT LeftFinger02
                    {
                      OFFSET -0.823 -2.3 1.6571
                      CHANNELS 3 Zrotation Xrotation Yrotation
                      End Site
                      {
                        OFFSET -0.5822 -1.6914 1.1582
                      }
                    }
                  }
                }
              }
            }
          }
        }
        JOINT RightCollar
        {
          OFFSET -2.2603 21.606 7.4023
          CHANNELS 3 Zrotation Xrotation Yrotation
          JOINT RightShoulder
          {
            OFFSET -13.5187 -1.1334 -5.0155
            CHANNELS 3 Zrotation Xrotation Yrotation
            JOINT RightElbow
            {
              OFFSET 0.0994 -28.0499 -0.2431
              CHANNELS 3 Zrotation Xrotation Yrotation
              JOINT RightWrist
              {
                OFFSET -0.0679 -23.3996 -0.1402
                CHANNELS 3 Zrotation Xrotation Yrotation
                JOINT RightFinger1
                {
                  OFFSET -0.7932 -9.0691 2.5189
                  CHANNELS 3 Zrotation Xrotation Yrotation
                  JOINT RightFinger11
                  {
                    OFFSET 0.8272 -3.3923 0.5977
                    CHANNELS 3 Zrotation Xrotation Yrotation
                    JOINT RightFinger12
                    {
                      OFFSET 0.565 -2.3158 0.4082
                      CHANNELS 3 Zrotation Xrotation Yrotation
                      End Site
                      {
                        OFFSET 0.4919 -1.6479 0.2673
                      }
                    }
                  }
                }
                JOINT RightFinger2
                {
                  OFFSET -0.916 -9.2044 0.2193
                  CHANNELS 3 Zrotation Xrotation Yrotation
                  JOINT RightFinger21
                  {
                    OFFSET -0.0117 -4.1944 -0.0248
                    CHANNELS 3 Zrotation Xrotation Yrotation
                    JOINT RightFinger22
                    {
                      OFFSET -0.0071 -2.3249 -0.0142
                      CHANNELS 3 Zrotation Xrotation Yrotation
                      End Site
                      {
                        OFFSET 0.1475 -2.0882 0.0028
                      }
                    }
                  }
                }
                JOINT RightFinger3
                {
                  OFFSET -0.6113 -8.7231 -2.0637
                  CHANNELS 3 Zrotation Xrotation Yrotation
                  JOINT RightFinger31
                  {
                    OFFSET 0.1927 -3.8059 -0.2383
                    CHANNELS 3 Zrotation Xrotation Yrotation
                    JOINT RightFinger32
                    {
                      OFFSET 0.1091 -2.1688 -0.1362
                      CHANNELS 3 Zrotation Xrotation Yrotation
                      End Site
                      {
                        OFFSET 0.2358 -1.9176 -0.0906
                      }
                    }
                  }
                }
                JOINT RightFinger4
                {
                  OFFSET 0.6151 -8.0947 -3.564
                  CHANNELS 3 Zrotation Xrotation Yrotation
                  JOINT RightFinger41
                  {
                    OFFSET 0.4882 -2.341 -0.6462
                    CHANNELS 3 Zrotation Xrotation Yrotation
                    JOINT RightFinger42
                    {
                      OFFSET 0.3574 -1.7166 -0.4742
                      CHANNELS 3 Zrotation Xrotation Yrotation
                      End Site
                      {
                        OFFSET 0.4187 -1.5237 -0.3496
                      }
                    }
                  }
                }
                JOINT RightFinger0
                {
                  OFFSET 1.4199 -1.8761 1.4221
                  CHANNELS 3 Zrotation Xrotation Yrotation
                  JOINT RightFinger01
                  {
                    OFFSET 1.1472 -3.4929 2.6336
                    CHANNELS 3 Zrotation Xrotation Yrotation
                    JOINT RightFinger02
                    {
                      OFFSET 0.8229 -2.3 1.6571
                      CHANNELS 3 Zrotation Xrotation Yrotation
                      End Site
                      {
                        OFFSET 0.5822 -1.6914 1.1582
                      }
                    }
                  }
                }
              }
            }
          }
        }
      }
    }
  }
  JOINT RightHip
  {
    OFFSET -9.412 3.9771 -0.7758
    CHANNELS 3 Zrotation Xrotation Yrotation
    JOINT RightKnee
    {
      OFFSET -0.7531 -40.938 0
      CHANNELS 3 Zrotation Xrotation Yrotation
      JOINT RightAnkle
      {
        OFFSET 0 -40.1986 0
        CHANNELS 3 Zrotation Xrotation Yrotation
        JOINT RightToe
        {
          OFFSET 0 -4.4182 9.239
          CHANNELS 3 Zrotation Xrotation Yrotation
          End Site
          {
            OFFSET 0 0 6.1981
          }
        }
      }
    }
  }
  JOINT LeftHip
  {
    OFFSET 9.4119 3.9773 -0.7758
    CHANNELS 3 Zrotation Xrotation Yrotation
    JOINT LeftKnee
    {
      OFFSET 0.7532 -40.9383 0
      CHANNELS 3 Zrotation Xrotation Yrotation
      JOINT LeftAnkle
      {
        OFFSET 0 -40.1986 0
        CHANNELS 3 Zrotation Xrotation Yrotation
        JOINT LeftToe
        {
          OFFSET 0 -4.4182 9.239
          CHANNELS 3 Zrotation Xrotation Yrotation
          End Site
          {
            OFFSET 0 0 6.1981
          }
        }
      }
    }
  }
}
MOTION
Frames:	4
Frame Time:	0.0333333
-0.000131066 67.8274 46.248 -180 70.0004 180 -0.232084 12.1415 -0.25656 -0.4218 24.284 -0.478175 -0.4218 24.284 -0.478174 1.16522e-005 -5.69652 1.13065e-005 4.57254e-009 19.0327 -9.68147e-007 41.3891 -5.58966 -18.4877 133.482 -3.66022 60.9885 12.0417 -5.45725 2.5673 -3.65784 0.610699 0.46355 -7.95139e-016 1.98785e-016 1.59028e-015 -2.20695e-032 7.95139e-016 1.59028e-015 7.95139e-016 0 -0 -7.95139e-016 1.98785e-016 1.59028e-015 -0.012871 0.00233699 8.14923e-005 -1.59028e-015 -9.93923e-017 -4.77083e-015 -7.95139e-016 1.98785e-016 1.59028e-015 -0.0161399 0.00302652 0.000854772 7.95139e-016 4.96962e-016 1.59028e-015 -7.95139e-016 1.98785e-016 1.59028e-015 -0.0124784 0.00310345 0.00279953 -7.95139e-016 -1.2921e-015 4.77083e-015 -7.95139e-016 1.98785e-016 1.59028e-015 -2.20695e-032 7.95139e-016 1.59028e-015 7.95139e-016 0 -0 -42.4597 -5.47196 12.9353 -132.335 -5.94663 -64.8207 -12.0169 -5.35324 -2.89446 3.69849 0.938204 -0.60812 -7.95139e-016 3.08116e-015 -3.18055e-015 7.95139e-016 3.77691e-015 -0 -1.59028e-015 4.27387e-015 -1.59028e-015 -7.95139e-016 3.08116e-015 -3.18055e-015 0.0128762 0.00229973 -7.41085e-005 -3.97569e-015 -2.51463e-014 -3.18055e-015 -7.95139e-016 3.08116e-015 -3.18055e-015 0.0163801 0.00303524 -0.000875569 8.27607e-032 -2.98177e-015 1.59028e-015 -7.95139e-016 3.08116e-015 -3.18055e-015 0.0146553 0.00369784 -0.00326738 -7.95139e-016 -4.96962e-016 -4.77083e-015 -7.95139e-016 3.08116e-015 -3.18055e-015 7.95139e-016 3.77691e-015 -0 -1.59028e-015 4.27387e-015 -1.59028e-015 -171.622 -70.1894 -168.641 4.08983 5.84886 -1.36404 -4.55657 35.0166 -5.51518 -3.27931e-025 3.15066e-008 5.96354e-016 171.884 -70.1388 168.876 -3.98225 5.97087 1.29418 4.42844 34.9807 5.58785 -5.18094e-007 -5.12658e-006 1.20575e-006 
-0.000131065 67.8274 46.3021 180 70.0004 180 -0.231716 12.1816 -0.257567 -0.420695 24.3642 -0.480273 -0.420694 24.3642 -0.480272 1.11654e-005 -5.43611 1.13023e-005 4.60798e-008 19.4735 -4.49897e-007 41.4641 -5.67207 -18.3924 133.482 -3.66022 60.9885 12.0417 -5.45724 2.5673 -3.65782 0.610681 0.463547 7.95139e-016 -1.09332e-015 -1.59028e-015 7.95139e-016 -2.68359e-015 -0 1.59028e-015 -1.78906e-015 -0 7.95139e-016 -1.09332e-015 -1.59028e-015 -0.0128321 0.00231929 9.09142e-005 9.21019e-006 4.97989e-006 -1.04516e-005 7.95139e-016 -1.09332e-015 -1.59028e-015 -0.0159919 0.00298796 0.000858372 2.75869e-032 -4.96962e-016 3.18055e-015 7.95139e-016 -1.09332e-015 -1.59028e-015 -0.0126196 0.00312482 0.00284114 -7.38371e-006 -3.93191e-006 7.77089e-006 7.95139e-016 -1.09332e-015 -1.59028e-015 7.95139e-016 -2.68359e-015 -0 1.59028e-015 -1.78906e-015 -0 -42.5427 -5.55178 12.8395 -132.335 -5.94663 -64.8207 -12.0169 -5.35324 -2.89449 3.69849 0.938235 -0.608077 7.95139e-016 -7.45443e-015 1.59028e-015 1.59028e-015 -7.25564e-015 -1.59028e-015 7.95139e-016 -6.95746e-015 -1.59028e-015 7.95139e-016 -7.45443e-015 1.59028e-015 0.012965 0.00231675 -8.82441e-005 -7.95139e-016 4.96962e-016 1.59028e-015 7.95139e-016 -7.45443e-015 1.59028e-015 0.0164436 0.00305278 -0.000885735 2.34643e-006 -4.90577e-006 -1.81909e-005 7.95139e-016 -7.45443e-015 1.59028e-015 0.0144614 0.00363594 -0.00324078 -1.59028e-015 2.78299e-015 3.18055e-015 7.95139e-016 -7.45443e-015 1.59028e-015 1.59028e-015 -7.25564e-015 -1.59028e-015 7.95139e-016 -6.95746e-015 -1.59028e-015 -171.622 -70.1892 -168.642 4.08979 5.84948 -1.36406 -4.55656 35.0161 -5.51519 1.13463e-007 2.56678e-006 5.04783e-007 171.884 -70.1388 168.876 -3.98226 5.97092 1.29421 4.42844 34.9807 5.58785 -1.51231e-006 -2.48108e-006 1.0669e-006 
-0.00013107 67.8274 46.3563 -180 70.0004 180 -0.231346 12.2217 -0.25858 -0.419579 24.4444 -0.482385 -0.419579 24.4444 -0.482385 1.17656e-005 -5.17587 1.10938e-005 2.7522e-008 19.9137 1.07284e-006 41.5393 -5.75439 -18.2969 133.482 -3.66021 60.9885 12.0417 -5.45721 2.56732 -3.65782 0.61066 0.463543 -1.59028e-015 4.96962e-016 -0 -7.95139e-016 1.49089e-015 -0 0 1.68967e-015 -0 -1.59028e-015 4.96962e-016 -0 -0.0127744 0.00232414 8.77739e-005 -3.97569e-016 -2.68359e-015 1.59028e-015 -1.59028e-015 4.96962e-016 -0 -0.016031 0.00298506 0.000853607 5.56597e-015 -9.93923e-016 -9.54166e-015 -1.59028e-015 4.96962e-016 -0 -0.0125349 0.00311124 0.00281855 -7.95139e-016 -1.98785e-015 1.59028e-015 -1.59028e-015 4.96962e-016 -0 -7.95139e-016 1.49089e-015 -0 0 1.68967e-015 -0 -42.6258 -5.6315 12.7436 -132.335 -5.94666 -64.8207 -12.0169 -5.35327 -2.89444 3.69849 0.93821 -0.608133 1.29437e-007 1.81303e-006 -1.00911e-005 -7.95139e-016 0 -0 -1.29436e-007 -1.81303e-006 1.00911e-005 1.29437e-007 1.81303e-006 -1.00911e-005 0.012991 0.00232915 -8.26415e-005 -7.95139e-016 -9.93923e-017 -1.59028e-015 1.29437e-007 1.81303e-006 -1.00911e-005 0.0162155 0.00301666 -0.000853975 -2.38542e-015 -2.56432e-014 -0 1.29437e-007 1.81303e-006 -1.00911e-005 0.0146405 0.00369414 -0.00325539 2.38542e-015 5.56597e-015 -1.59028e-015 1.29437e-007 1.81303e-006 -1.00911e-005 -7.95139e-016 0 -0 -1.29436e-007 -1.81303e-006 1.00911e-005 -171.628 -70.1776 -168.647 4.09026 5.87075 -1.36527 -4.55626 35.0066 -5.51545 1.02306e-006 1.0135e-007 -5.23425e-007 171.884 -70.1388 168.876 -3.98226 5.97092 1.29421 4.42844 34.9807 5.58785 -2.53552e-006 -2.38058e-006 1.59003e-006 
-0.000131065 67.8274 46.4104 -180 70.0004 -180 -0.230971 12.2618 -0.259599 -0.418453 24.5245 -0.484511 -0.418452 24.5245 -0.484511 1.11722e-005 -4.91569 1.15488e-005 -9.24426e-008 20.3533 1.31295e-007 41.6147 -5.83654 -18.2013 133.482 -3.66023 60.9885 12.0417 -5.45727 2.56732 -3.65783 0.610648 0.463529 -8.55194e-032 3.08116e-015 1.59028e-015 6.57529e-007 -5.2032e-006 1.05728e-005 6.7208e-007 2.59973e-006 -5.53214e-008 -8.55194e-032 3.08116e-015 1.59028e-015 -0.0129141 0.00234142 0.000103047 -1.07675e-006 -4.23874e-006 1.02808e-005 -8.55194e-032 3.08116e-015 1.59028e-015 -0.0160714 0.00298607 0.000879657 -1.59028e-015 2.5842e-015 -3.18055e-015 -8.55194e-032 3.08116e-015 1.59028e-015 -0.0126671 0.00313639 0.00284976 9.04208e-007 -2.6613e-006 1.05501e-005 -8.55194e-032 3.08116e-015 1.59028e-015 6.57529e-007 -5.2032e-006 1.05728e-005 6.7208e-007 2.59973e-006 -5.53214e-008 -42.7092 -5.71104 12.6476 -132.335 -5.94664 -64.8207 -12.0169 -5.35325 -2.89448 3.6985 0.938212 -0.608103 6.34499e-032 -2.28602e-015 1.59028e-015 1.33918e-005 1.25024e-005 9.55421e-006 -1.59028e-015 -6.95746e-016 7.95139e-015 6.34499e-032 -2.28602e-015 1.59028e-015 0.0129207 0.00232615 -6.47864e-005 3.03456e-032 1.09332e-015 -1.59028e-015 6.34499e-032 -2.28602e-015 1.59028e-015 0.0162608 0.00302805 -0.000853206 1.59028e-015 1.09332e-015 3.18055e-015 6.34499e-032 -2.28602e-015 1.59028e-015 0.0145865 0.00368294 -0.00324824 -7.00708e-031 2.52457e-014 1.59028e-015 6.34499e-032 -2.28602e-015 1.59028e-015 1.33918e-005 1.25024e-005 9.55421e-006 -1.59028e-015 -6.95746e-016 7.95139e-015 -171.622 -70.1894 -168.641 4.08983 5.84886 -1.36404 -4.55657 35.0166 -5.51518 5.96354e-016 3.15066e-008 -3.97569e-016 171.884 -70.1388 168.876 -3.98226 5.97092 1.29421 4.42844 34.9807 5.58785 -1.51231e-006 -2.48108e-006 1.0669e-006 
